<svg width="250" height="150" viewBox="0 0 250 150" fill="none" xmlns="http://www.w3.org/2000/svg">
<rect x="75" y="67" width="18" height="59" rx="3" fill="#004CAF"/>
<rect x="115" y="49" width="19" height="77" rx="3" fill="#004CAF"/>
<rect x="156" y="23" width="18" height="103" rx="3" fill="#004CAF"/>
<rect x="156" y="67" width="18" height="59" rx="3" fill="#004CAF"/>
<rect x="156" y="23" width="18" height="39" rx="3" fill="#004CAF"/>
<path d="M96.75 75.0752C96.75 74.1843 97.8271 73.7382 98.457 74.3682L111.172 87.082C111.359 87.2695 111.464 87.524 111.464 87.7891V93.1143C111.464 93.8576 110.681 94.3412 110.017 94.0088L97.3027 87.6514C96.964 87.482 96.75 87.1356 96.75 86.7568V75.0752ZM105.946 89.2139C104.308 88.3788 104.107 91.0537 104.107 91.0537L107.786 92.8926C107.784 92.8616 107.576 90.0448 105.946 89.2139Z" fill="#004CAF"/>
<path d="M150.222 74.3682C150.852 73.7382 151.929 74.1843 151.929 75.0752V86.7568C151.929 87.1355 151.715 87.4819 151.376 87.6514L138.661 94.0088C137.996 94.3408 137.214 93.8574 137.214 93.1143V87.7891C137.214 87.524 137.319 87.2695 137.507 87.082L150.222 74.3682ZM144.571 91.0537C144.571 91.0537 144.371 88.379 142.732 89.2139C141.103 90.0447 140.895 92.8611 140.893 92.8926L144.571 91.0537Z" fill="#004CAF"/>
</svg>
