<svg width="250" height="150" viewBox="0 0 250 150" fill="none" xmlns="http://www.w3.org/2000/svg">
<rect x="57" y="66" width="10" height="32" rx="3" fill="white"/>
<rect x="79" y="56" width="10" height="42" rx="3" fill="white"/>
<rect x="101" y="42" width="10" height="56" rx="3" fill="white"/>
<rect x="101" y="66" width="10" height="32" rx="3" fill="white"/>
<rect x="101" y="42" width="10" height="21" rx="3" fill="white"/>
<path d="M123.589 98.4734C122.103 98.4734 120.765 98.2087 119.574 97.6793C118.393 97.1398 117.456 96.3458 116.764 95.2972C116.082 94.2487 115.741 92.9558 115.741 91.4187C115.741 90.0953 115.985 89.0009 116.474 88.1357C116.962 87.2704 117.629 86.5781 118.474 86.0589C119.319 85.5398 120.271 85.1478 121.33 84.8832C122.398 84.6083 123.503 84.4098 124.643 84.2876C126.017 84.1451 127.132 84.0179 127.987 83.9059C128.842 83.7837 129.463 83.6005 129.85 83.3562C130.247 83.1017 130.446 82.7098 130.446 82.1804V82.0888C130.446 80.9384 130.105 80.0477 129.423 79.4165C128.741 78.7854 127.758 78.4698 126.475 78.4698C125.122 78.4698 124.048 78.765 123.254 79.3555C122.47 79.9459 121.94 80.6432 121.665 81.4474L116.504 80.7145C116.911 79.2893 117.583 78.0982 118.52 77.1413C119.456 76.1742 120.602 75.4515 121.956 74.973C123.31 74.4844 124.806 74.2401 126.445 74.2401C127.575 74.2401 128.7 74.3724 129.82 74.6371C130.939 74.9018 131.962 75.3395 132.889 75.9503C133.815 76.5509 134.558 77.3704 135.118 78.4087C135.688 79.4471 135.973 80.745 135.973 82.3026V98H130.659V94.7781H130.476C130.14 95.4296 129.667 96.0404 129.056 96.6104C128.455 97.1703 127.697 97.6233 126.781 97.9695C125.875 98.3054 124.811 98.4734 123.589 98.4734ZM125.025 94.4116C126.134 94.4116 127.096 94.1927 127.911 93.755C128.725 93.3071 129.351 92.7166 129.789 91.9837C130.237 91.2507 130.461 90.4516 130.461 89.5863V86.8224C130.288 86.965 129.993 87.0973 129.575 87.2195C129.168 87.3416 128.71 87.4485 128.201 87.5401C127.692 87.6317 127.188 87.7132 126.689 87.7844C126.19 87.8557 125.758 87.9168 125.391 87.9677C124.567 88.0797 123.829 88.2629 123.177 88.5174C122.526 88.7719 122.012 89.1282 121.635 89.5863C121.258 90.0342 121.07 90.6145 121.07 91.3271C121.07 92.3451 121.442 93.1136 122.185 93.6328C122.928 94.152 123.875 94.4116 125.025 94.4116ZM151.732 107.284C149.747 107.284 148.042 107.014 146.616 106.475C145.191 105.945 144.046 105.233 143.181 104.337C142.315 103.441 141.715 102.449 141.379 101.359L146.357 100.153C146.581 100.611 146.907 101.064 147.334 101.512C147.762 101.97 148.337 102.347 149.06 102.642C149.793 102.947 150.714 103.1 151.824 103.1C153.391 103.1 154.689 102.718 155.717 101.955C156.746 101.202 157.26 99.9596 157.26 98.229V93.7855H156.985C156.7 94.3556 156.282 94.9409 155.733 95.5415C155.193 96.1422 154.475 96.6461 153.58 97.0533C152.694 97.4605 151.579 97.6641 150.235 97.6641C148.434 97.6641 146.8 97.2416 145.334 96.3967C143.878 95.5415 142.718 94.2691 141.852 92.5792C140.997 90.8791 140.57 88.7515 140.57 86.1964C140.57 83.6209 140.997 81.4474 141.852 79.6761C142.718 77.8946 143.883 76.5458 145.349 75.6296C146.815 74.7032 148.449 74.2401 150.251 74.2401C151.625 74.2401 152.755 74.4742 153.641 74.9425C154.536 75.4006 155.249 75.9554 155.778 76.6069C156.308 77.2482 156.71 77.8539 156.985 78.424H157.29V74.5455H162.741V98.3817C162.741 100.387 162.263 102.047 161.306 103.36C160.349 104.673 159.041 105.655 157.382 106.307C155.722 106.958 153.839 107.284 151.732 107.284ZM151.778 93.3274C152.948 93.3274 153.946 93.0424 154.771 92.4723C155.595 91.9022 156.221 91.0827 156.649 90.0138C157.076 88.945 157.29 87.6623 157.29 86.1658C157.29 84.6897 157.076 83.3969 156.649 82.2873C156.231 81.1777 155.61 80.3175 154.786 79.7067C153.971 79.0857 152.969 78.7752 151.778 78.7752C150.546 78.7752 149.518 79.0959 148.693 79.7372C147.869 80.3786 147.248 81.2591 146.83 82.3789C146.413 83.4885 146.204 84.7508 146.204 86.1658C146.204 87.6012 146.413 88.8584 146.83 89.9375C147.258 91.0064 147.884 91.8411 148.708 92.4418C149.543 93.0322 150.566 93.3274 151.778 93.3274ZM178.79 98.4581C176.439 98.4581 174.408 97.9695 172.697 96.9922C170.997 96.0047 169.689 94.6101 168.773 92.8082C167.857 90.9962 167.399 88.8635 167.399 86.4102C167.399 83.9975 167.857 81.8801 168.773 80.0579C169.699 78.2255 170.992 76.8003 172.652 75.7823C174.311 74.7541 176.26 74.2401 178.5 74.2401C179.946 74.2401 181.31 74.4742 182.592 74.9425C183.885 75.4006 185.025 76.1132 186.013 77.0803C187.01 78.0473 187.794 79.2791 188.364 80.7756C188.934 82.2618 189.219 84.0331 189.219 86.0895V87.7844H169.995V84.0586H183.921C183.911 82.9999 183.682 82.0582 183.234 81.2337C182.786 80.3989 182.16 79.7423 181.355 79.2638C180.561 78.7854 179.635 78.5462 178.576 78.5462C177.446 78.5462 176.454 78.821 175.599 79.3707C174.744 79.9103 174.077 80.6229 173.598 81.5085C173.13 82.384 172.891 83.346 172.881 84.3945V87.647C172.881 89.0111 173.13 90.1818 173.629 91.1591C174.128 92.1262 174.825 92.8693 175.721 93.3885C176.617 93.8975 177.665 94.152 178.866 94.152C179.671 94.152 180.399 94.04 181.05 93.8161C181.702 93.5819 182.267 93.2409 182.745 92.793C183.223 92.3451 183.585 91.7902 183.829 91.1286L188.99 91.7088C188.665 93.0729 188.044 94.264 187.127 95.282C186.221 96.2898 185.061 97.0736 183.646 97.6335C182.231 98.1832 180.612 98.4581 178.79 98.4581Z" fill="white"/>
<path d="M69 71.4142C69 70.5233 70.0771 70.0772 70.707 70.7071L76.707 76.7071C76.8946 76.8947 77 77.149 77 77.4142V79.3819C77 80.1253 76.2176 80.6089 75.5527 80.2765L75 80.0001C75 80.0001 74.8908 78.4544 74 78.0001C73.1091 77.5458 73 79.0001 73 79.0001L69.5527 77.2765C69.214 77.1071 69 76.7607 69 76.3819V71.4142Z" fill="white"/>
<path d="M97.293 70.7071C97.9229 70.0772 99 70.5233 99 71.4142V76.3819C99 76.7607 98.786 77.1071 98.4473 77.2765L95 79.0001C95 79.0001 94.8909 77.5458 94 78.0001C93.1092 78.4544 93 80.0001 93 80.0001L92.4473 80.2765C91.7824 80.6089 91 80.1253 91 79.3819V77.4142C91 77.149 91.1054 76.8947 91.293 76.7071L97.293 70.7071Z" fill="white"/>
</svg>
